<?xml version="1.0" standalone="no"?><!DOCTYPE svg PUBLIC "-//W3C//DTD SVG 1.1//EN" "http://www.w3.org/Graphics/SVG/1.1/DTD/svg11.dtd"><svg t="1537697540496" class="icon" style="" viewBox="0 0 1024 1024" version="1.1" xmlns="http://www.w3.org/2000/svg" p-id="1621" xmlns:xlink="http://www.w3.org/1999/xlink" width="64" height="64"><defs><style type="text/css"></style></defs><path d="M513.027192 1.25294C231.157313 1.25294 2.657558 229.751627 2.657558 511.622574c0 281.868811 228.499755 510.369634 510.369634 510.369635 281.868811 0 510.370702-228.500823 510.370702-510.369635S794.896003 1.25294 513.027192 1.25294z m222.004334 354.019151c36.728344 0 66.48594 28.882781 66.48594 64.503454 0 35.614263-29.757596 64.489567-66.48594 64.489567-36.746503 0-66.520121-28.872099-66.520121-64.489567 0-35.618536 29.773618-64.503453 66.520121-64.503454z m-450.191121 0c36.733685 0 66.507303 28.882781 66.507303 64.503454 0 35.614263-29.773618 64.489567-66.507303 64.489567-36.735821 0-66.515848-28.872099-66.515848-64.489567-0.002136-35.618536 29.780027-64.503453 66.515848-64.503454z m225.093424 565.242646c-201.538576 0-364.92176-163.378911-364.92176-364.918556h729.842452c-0.002136 201.539645-163.379979 364.918556-364.920692 364.918556" p-id="1622" fill="#515151"></path></svg>